# xmcd
#
# Track frame offsets: 
#        151
#        28328
#        56123
#        80557
#        103159
#        131604
#        157011
#        185936
#        206391
#        229019
#
# Disc length: 3410 seconds
#
# Revision: 2
# Processed by: cddbd v1.5.2PL0 Copyright (c) Steve Scherf et al.
# Submitted via: ExactAudioCopy v1.2
#
DISCID=910d500a
DTITLE=Various Artist - Dillagi (1999)
DYEAR=1999
DGENRE=Hindi Film OST
TTITLE0=Dillagi
TTITLE1=Dhoom Dhoom Luck Luck
TTITLE2=Kya Keh Sach Hai
TTITLE3=Koi Nahin Aisa
TTITLE4=Yeh Zamin Hai
TTITLE5=Rahon Mein Chhayee
TTITLE6=Tanhai
TTITLE7=Han Han Yeh Pyar Hai
TTITLE8=Mein Kya Karoon
TTITLE9=Sangeet
EXTD=
EXTT0=
EXTT1=
EXTT2=
EXTT3=
EXTT4=
EXTT5=
EXTT6=
EXTT7=
EXTT8=
EXTT9=
PLAYORDER=
